<?xml version="1.0" encoding="UTF-8"?>
<svg id="Layer_2" xmlns="http://www.w3.org/2000/svg" xmlns:xlink="http://www.w3.org/1999/xlink" viewBox="0 0 424.88 112.24">
  <defs>
    <style>
      .cls-1 {
        fill: url(#linear-gradient-2);
      }

      .cls-2 {
        fill: #10112e;
      }

      .cls-3 {
        fill: url(#linear-gradient-10);
      }

      .cls-4 {
        fill: url(#linear-gradient-4);
      }

      .cls-5 {
        fill: url(#linear-gradient-3);
      }

      .cls-6 {
        fill: url(#linear-gradient-5);
      }

      .cls-7 {
        fill: url(#linear-gradient-8);
      }

      .cls-8 {
        fill: url(#linear-gradient-7);
      }

      .cls-9 {
        fill: url(#linear-gradient-9);
      }

      .cls-10 {
        fill: url(#linear-gradient-6);
      }

      .cls-11 {
        fill: url(#linear-gradient);
      }
    </style>
    <linearGradient id="linear-gradient" x1="0" y1="56.12" x2="112.27" y2="56.12" gradientUnits="userSpaceOnUse">
      <stop offset="0" stop-color="#fedd4d"/>
      <stop offset="0" stop-color="#f58021"/>
      <stop offset=".28" stop-color="#f89935"/>
      <stop offset=".63" stop-color="#fcb64c"/>
      <stop offset=".75" stop-color="#fcbd4c"/>
      <stop offset=".92" stop-color="#fdd14c"/>
      <stop offset="1" stop-color="#fedd4d"/>
    </linearGradient>
    <linearGradient id="linear-gradient-2" x1="140.59" y1="56.93" x2="181.71" y2="56.93" xlink:href="#linear-gradient"/>
    <linearGradient id="linear-gradient-3" x1="189.21" y1="66.25" x2="225.95" y2="66.25" xlink:href="#linear-gradient"/>
    <linearGradient id="linear-gradient-4" x1="236.62" y1="56.21" x2="246.6" y2="56.21" xlink:href="#linear-gradient"/>
    <linearGradient id="linear-gradient-5" x1="259.06" y1="56.21" x2="269.04" y2="56.21" xlink:href="#linear-gradient"/>
    <linearGradient id="linear-gradient-6" x1="276.56" y1="76.41" x2="319.17" y2="76.41" xlink:href="#linear-gradient"/>
    <linearGradient id="linear-gradient-7" x1="325.99" y1="56" x2="353.72" y2="56" xlink:href="#linear-gradient"/>
    <linearGradient id="linear-gradient-8" x1="362.99" y1="56.21" x2="372.96" y2="56.21" xlink:href="#linear-gradient"/>
    <linearGradient id="linear-gradient-9" x1="382.23" y1="66.19" x2="424.88" y2="66.19" xlink:href="#linear-gradient"/>
    <linearGradient id="linear-gradient-10" x1="335.48" y1="48.72" x2="352.23" y2="48.72" xlink:href="#linear-gradient"/>
  </defs>
  <g id="Layer_1-2" data-name="Layer_1">
    <g>
      <path class="cls-2" d="M62.11,64.48v18.6l-11.93,11.93v-30.53h11.93ZM84.8,29.13v31.26l11.98-11.95v-31.28l-11.98,11.98ZM29.17,50.14l-12.01,11.98h30.64v-11.98h-18.63ZM63.82,15.5l-11.98,11.98h31.31l11.98-11.98h-31.31ZM15.49,64.48v30.58l11.98-11.98v-18.6h-11.98ZM29.15,84.77l-11.98,11.98h30.64v-11.98h-18.66ZM62.11,50.14v-20.31h-11.93v32.29h32.27v-11.98h-20.34Z"/>
      <path class="cls-11" d="M62.72,0C28.1,0,0,28.07,0,62.72v49.52h49.55c34.65,0,62.72-28.07,62.72-62.72V0h-49.55ZM29.21,50.12h18.63v11.98h-30.64l12.01-11.98ZM47.84,96.72h-30.64l11.98-11.98h18.66v11.98ZM15.52,64.45h11.98v18.6l-11.98,11.98v-30.58ZM62.15,83.06l-11.93,11.93v-30.53h11.93v18.6ZM82.49,62.1h-32.27V29.81h11.93v20.31h20.34v11.98ZM51.88,27.45l11.98-11.98h31.31l-11.98,11.98h-31.31ZM96.82,48.41l-11.98,11.95v-31.26l11.98-11.98v31.28Z"/>
    </g>
    <g>
      <path class="cls-1" d="M140.59,86.87V28.66c0-.35.26-.66.61-.72,2.37-.39,4.46-.72,6.28-.97,1.97-.28,3.84-.46,5.59-.56,1.75-.1,3.64-.15,5.65-.15,4.44,0,8.4.78,11.86,2.34,3.46,1.56,6.18,3.74,8.16,6.54,1.97,2.8,2.96,6.05,2.96,9.75s-.93,6.74-2.77,9.36c-1.85,2.62-4.24,4.69-7.16,6.19-2.93,1.51-6.05,2.41-9.36,2.71-1.22.11-2.52.12-3.91.04-1.14-.07-2.32-.25-3.56-.56-.45-.11-.69-.61-.49-1.03.35-.72.77-1.44,1.25-2.16.66-.98,1.46-1.81,2.38-2.48.92-.68,1.99-1.04,3.21-1.1,1.66-.08,3.22-.62,4.7-1.61,1.48-.99,2.68-2.3,3.6-3.93.93-1.63,1.39-3.44,1.39-5.42s-.53-3.94-1.59-5.61c-1.06-1.67-2.51-3-4.35-3.98-1.84-.98-3.94-1.47-6.31-1.47-1.52,0-2.82.04-3.91.12-.93.07-2,.17-3.22.3-.37.04-.65.35-.65.72v51.88c0,.4-.32.72-.72.72h-8.9c-.4,0-.72-.32-.72-.72Z"/>
      <path class="cls-5" d="M202.46,88.59c-2.73,0-5.09-.56-7.08-1.68-1.99-1.12-3.51-2.61-4.58-4.47-1.06-1.86-1.59-3.89-1.59-6.07,0-2.48.7-4.71,2.09-6.69,1.39-1.97,3.75-3.61,7.06-4.91,3.12-1.22,7.34-2.1,12.65-2.64.49-.05.9.4.78.89-.17.72-.39,1.42-.68,2.13-.41,1.02-1.01,1.9-1.8,2.63-.79.73-1.82,1.21-3.08,1.43-1.79.28-3.2.73-4.22,1.37-1.02.64-1.75,1.38-2.17,2.24-.43.86-.64,1.75-.64,2.69,0,1.55.54,2.86,1.64,3.93,1.09,1.08,2.48,1.61,4.16,1.61s3.43-.52,5.16-1.55c1.66-1,3.21-2.37,4.66-4.12.11-.13.17-.3.17-.47v-13.4c0-3.04-.79-5.47-2.38-7.31-1.59-1.84-4-2.75-7.23-2.75-1.41,0-2.88.14-4.41.43-1.36.26-2.89.68-4.61,1.27-.37.13-.78-.06-.92-.43l-1.95-5.15c-.14-.36.03-.77.39-.93,2.32-1.01,4.58-1.71,6.78-2.1,2.4-.43,4.56-.64,6.46-.64,5.66,0,10.03,1.54,13.11,4.62,3.08,3.08,4.62,7.49,4.62,13.23v13.95c0,2.21.11,4.3.33,6.27.18,1.65.44,3.22.78,4.72.1.46-.24.89-.7.89h-6.28c-.14,0-.28-.04-.4-.11-.66-.43-1.21-.98-1.64-1.67-.45-.72-.84-1.48-1.16-2.3-.03-.06-.04-.13-.05-.2l-.15-1.47-.95,1.38s-.07.09-.11.12c-2.29,2.15-4.35,3.56-6.17,4.23-1.84.68-3.79,1.01-5.86,1.01Z"/>
      <path class="cls-4" d="M236.62,86.87V25.54c0-.4.32-.72.72-.72h8.53c.4,0,.72.32.72.72v61.33c0,.4-.32.72-.72.72h-8.53c-.4,0-.72-.32-.72-.72Z"/>
      <path class="cls-6" d="M259.06,86.87V25.54c0-.4.32-.72.72-.72h8.53c.4,0,.72.32.72.72v61.33c0,.4-.32.72-.72.72h-8.53c-.4,0-.72-.32-.72-.72Z"/>
      <path class="cls-10" d="M291.16,85.16l-14.55-39.41c-.17-.47.18-.98.68-.98h9.19c.32,0,.6.21.69.51l6.88,22.31c.72,2.15,1.03,4.45.93,6.89-.1,2.44-.45,4.75-1.06,6.92-.42,1.48-.9,2.76-1.44,3.84-.29.56-1.11.51-1.33-.08ZM285.28,108.05c-1.1-.06-2.29-.19-3.56-.39-1.04-.17-2.08-.43-3.12-.77-.38-.13-.58-.55-.44-.93l1.93-5.4c.13-.35.5-.54.86-.46.7.16,1.35.28,1.97.36.8.1,1.59.15,2.36.15,2.01,0,3.65-.66,4.91-1.97,1.26-1.31,2.37-3.17,3.33-5.57s2-5.25,3.11-8.53l12.3-39.24c.09-.3.37-.51.69-.51h8.83c.5,0,.85.5.68.97l-14.8,40.93c-1.3,3.31-2.51,6.29-3.62,8.92-1.12,2.64-2.35,4.88-3.71,6.73-1.35,1.85-2.95,3.26-4.8,4.24-1.85.98-4.16,1.47-6.92,1.47Z"/>
      <path class="cls-8" d="M325.99,44.78v-2.32c0-3.62.7-6.78,2.09-9.48,1.39-2.71,3.38-4.81,5.96-6.31,2.58-1.5,5.65-2.26,9.21-2.26,1.38,0,2.99.17,4.82.5,1.65.3,3.38.83,5.2,1.59.35.15.52.55.4.91l-1.79,5.16c-.13.37-.53.57-.9.45-1.37-.41-2.54-.71-3.51-.89-1.13-.21-2.17-.31-3.11-.31-1.68,0-3.2.39-4.53,1.18-1.34.79-2.4,1.95-3.19,3.48s-1.18,3.42-1.18,5.65v44.74c0,.4-.32.72-.72.72h-8.03c-.4,0-.72-.32-.72-.72v-34.85"/>
      <path class="cls-7" d="M362.99,86.87V25.54c0-.4.32-.72.72-.72h8.53c.4,0,.72.32.72.72v61.33c0,.4-.32.72-.72.72h-8.53c-.4,0-.72-.32-.72-.72Z"/>
      <path class="cls-9" d="M403.55,88.59c-3.84,0-7.37-.87-10.6-2.61-3.23-1.74-5.82-4.28-7.78-7.62-1.96-3.34-2.94-7.41-2.94-12.22,0-3.84.65-7.16,1.95-9.98,1.3-2.82,3-5.13,5.11-6.96,2.11-1.82,4.42-3.18,6.92-4.08,2.5-.9,4.95-1.35,7.35-1.35,4.31,0,8.06.97,11.26,2.9,3.2,1.93,5.68,4.58,7.43,7.95,1.75,3.37,2.63,7.21,2.63,11.51,0,3.53-.59,6.69-1.78,9.48-1.19,2.79-2.8,5.14-4.82,7.06-2.03,1.92-4.31,3.38-6.85,4.39-2.54,1.01-5.16,1.51-7.87,1.51ZM403.55,81.09c2.35,0,4.31-.68,5.88-2.03,1.57-1.35,2.75-3.16,3.54-5.42.79-2.26,1.18-4.76,1.18-7.49,0-3.01-.44-5.63-1.33-7.87-.88-2.24-2.12-3.96-3.71-5.18-1.59-1.21-3.44-1.82-5.57-1.82s-3.99.61-5.59,1.82c-1.6,1.22-2.84,2.94-3.73,5.18-.88,2.24-1.33,4.86-1.33,7.87,0,4.39.95,7.98,2.84,10.77,1.89,2.79,4.49,4.18,7.81,4.18Z"/>
      <path class="cls-3" d="M350.41,49.44c-1.01.42-1.94.81-2.91,1.21.17.14.32.26.52.43-.57.21-1.11.41-1.65.6-2.04.69-4.11,1.14-6.24,1.04-1.36-.06-2.67-.33-3.94-.91.12-.2.44-.56,1.57-.98,1.81-.67,8.08-2.86,8.08-2.9-.01-.09-8.78,2.29-10.37,3.51.41-.68.88-1.3,1.41-1.86,1.47-1.53,3.17-2.59,4.99-3.38,1.22-.53,2.47-.94,3.71-1.4.04-.01.07-.02.13-.03-.04.2-.07.36-.11.57.83-.21,1.61-.42,2.44-.63-.08.29-.14.53-.2.77,1.46.2,2.9.39,4.34.58.01.04.02.08.04.12-.89.88-1.78,1.76-2.69,2.66.25.17.52.36.87.59Z"/>
    </g>
  </g>
</svg>